- 
http://www.Speed.Cd
 
http://www.Speed.Cd       the fast  and The Hottest Private Tracker on the net

Please Seed back to make the speed Faster!!
 ............ NFO .............
-                                                                                                     
       
     
     
       
       
     
     
                                         
                                         
                EXVID                    
                                         
         
                                         
         Filled the Archives             
                                         
         
                                         
                With:                    
                                         
         
                                         
                                    
     E240                           
                                    
     SP               (C) 2009      
                                         
     
     
     
                                                                                  
                                                                                   
              American.Mary.2012.FESTiVAL.DVDRip.XviD-EXViD                         
                                                                                   
                                                                                  
     
                                                                                               
EXViD aims to iNTERNAL those releases which have been lost in the archives.
EXViD aims to PRE non-internal releases which have poor sources and are likely skipped by others. 
http://www.imdb.com/title/tt1959332/
Subtitles: NL
Date: 2013.02

Directors: Jen Soska, Sylvia Soska

Genres: Horror | Thriller

Plot:
The story follows medical student, Mary Mason, as she becomes increasingly broke and
disenchanted with the surgical world she once admired. The allure of easy money sends Mary
into the world of underground surgeries which ends up leaving more marks on her than her so
called 'freakish' clientele. 

Cast:
Katharine Isabelle 	 ... 	 Mary Mason 
Antonio Cupo 	 ... 	 Billy Barker 
Tristan Risk 	 ... 	 Beatress Johnson 
David Lovgren 	 ... 	 Dr. Grant 
Paula Lindberg 	 ... 	 Ruby Realgirl 
Clay St. Thomas 	 ... 	 Dr. Walsh 
John Emmet Tracy 	 ... 	 Detective Dolor 
Twan Holliday 	 ... 	 Lance Delgreggo 
Nelson Wong 	 ... 	 Dr. Black 
Sylvia Soska 	 ... 	 Twin #1 
Jen Soska 	 ... 	 Twin #2 
Paul Anthony 	 ... 	 Rat 
Sean Amsing 	 ... 	 Security Guard 
Travis Watters 	 ... 	 Mr. Realgirl 
Marius Soska 	 ... 	 Dr. Janusz

Stats:
Format                           : AVI
Format/Info                      : Audio Video Interleave
File size                        : 701 MiB
Duration                         : 1h 38mn
Overall bit rate                 : 997 Kbps
Writing application              : VirtualDubMod 1.5.10.2 (build 2540/release)
Writing library                  : VirtualDubMod build 2540/release

Video
ID                               : 0
Format                           : MPEG-4 Visual
Format profile                   : Advanced Simple@L5
Format settings, BVOP            : Yes
Format settings, QPel            : No
Format settings, GMC             : No warppoints
Format settings, Matrix          : Default (H.263)
Muxing mode                      : Packed bitstream
Codec ID                         : XVID
Codec ID/Hint                    : XviD
Duration                         : 1h 38mn
Bit rate                         : 857 Kbps
Width                            : 624 pixels
Height                           : 352 pixels
Display aspect ratio             : 16:9
Frame rate                       : 25.000 fps
Color space                      : YUV
Chroma subsampling               : 4:2:0
Bit depth                        : 8 bits
Scan type                        : Progressive
Bits/(Pixel*Frame)               : 0.156
Stream size                      : 602 MiB (86%)
Writing library                  : XviD 64

Audio
ID                               : 1
Format                           : MPEG Audio
Format version                   : Version 1
Format profile                   : Layer 3
Mode                             : Joint stereo
Codec ID                         : 55
Codec ID/Hint                    : MP3
Duration                         : 1h 38mn
Bit rate mode                    : Variable
Bit rate                         : 127 Kbps
Minimum bit rate                 : 128 Kbps
Channel(s)                       : 2 channels
Sampling rate                    : 48.0 KHz
Stream size                      : 89.2 MiB (13%)
Alignment                        : Aligned on interleaves
Interleave, duration             : 24 ms (0.60 video frame)
Interleave, preload duration     : 494 ms
Writing library                  : LAME4.0a
Encoding settings                : -m j -V 4 -q 5 -lowpass 17.5 --vbr-old -b 128




Release notes:
enjoy!

Looking for:
75TB+ Archives
DUTCH/FLEMiSH Archives
                                                                                                    
Greets: CRBS EPiSODE FiCO FLS iLS KLASSiGER LiPSYNC MADE NODLABS RUNNER SPRiNTER      
   

                                                                    ASCII DONE BY XX^NFO 2oo9